<?xml version="1.0" encoding="UTF-8" standalone="no"?>
<!DOCTYPE svg PUBLIC "-//W3C//DTD SVG 1.1//EN"
 "http://www.w3.org/Graphics/SVG/1.1/DTD/svg11.dtd">
<!-- Generated by graphviz version 2.38.0 (20140413.2041)
 -->
<!-- Title: dependency&#45;cruiser output Pages: 1 -->
<svg width="318pt" height="106pt"
 viewBox="0.00 0.00 318.00 106.00" xmlns="http://www.w3.org/2000/svg" xmlns:xlink="http://www.w3.org/1999/xlink">
<g id="graph0" class="graph" transform="scale(1 1) rotate(0) translate(4 102)">
<title>dependency&#45;cruiser output</title>
<g id="clust1" class="cluster"><title>cluster_src</title>
<path fill="#ffffff" stroke="black" stroke-width="2" d="M20,-8C20,-8 290,-8 290,-8 296,-8 302,-14 302,-20 302,-20 302,-78 302,-78 302,-84 296,-90 290,-90 290,-90 20,-90 20,-90 14,-90 8,-84 8,-78 8,-78 8,-20 8,-20 8,-14 14,-8 20,-8"/>
<text text-anchor="middle" x="155" y="-78.8" font-family="Helvetica,sans-Serif" font-weight="bold" font-size="9.00">src</text>
</g>
<!-- src/Deck.js -->
<g id="node1" class="node"><title>src/Deck.js</title>
<g id="a_node1"><a xlink:href="src/Deck.js" xlink:title="Deck.js">
<path fill="#ffffcc" stroke="black" d="M131,-49C131,-49 89,-49 89,-49 86,-49 83,-46 83,-43 83,-43 83,-37 83,-37 83,-34 86,-31 89,-31 89,-31 131,-31 131,-31 134,-31 137,-34 137,-37 137,-37 137,-43 137,-43 137,-46 134,-49 131,-49"/>
<text text-anchor="middle" x="110" y="-37.8" font-family="Helvetica,sans-Serif" font-size="9.00">Deck.js</text>
</a>
</g>
</g>
<!-- src/PlayingCard.js -->
<g id="node2" class="node"><title>src/PlayingCard.js</title>
<g id="a_node2"><a xlink:href="src/PlayingCard.js" xlink:title="PlayingCard.js">
<path fill="#ffffcc" stroke="black" d="M221,-49C221,-49 156,-49 156,-49 153,-49 150,-46 150,-43 150,-43 150,-37 150,-37 150,-34 153,-31 156,-31 156,-31 221,-31 221,-31 224,-31 227,-34 227,-37 227,-37 227,-43 227,-43 227,-46 224,-49 221,-49"/>
<text text-anchor="middle" x="188.5" y="-37.8" font-family="Helvetica,sans-Serif" font-size="9.00">PlayingCard.js</text>
</a>
</g>
</g>
<!-- src/Deck.js&#45;&gt;src/PlayingCard.js -->
<g id="edge1" class="edge"><title>src/Deck.js&#45;&gt;src/PlayingCard.js</title>
<path fill="none" stroke="#999999" d="M137.327,-40C139.739,-40 142.222,-40 144.731,-40"/>
<polygon fill="#999999" stroke="#999999" points="144.903,-41.7501 149.903,-40 144.903,-38.2501 144.903,-41.7501"/>
</g>
<!-- src/Ranks.js -->
<g id="node3" class="node"><title>src/Ranks.js</title>
<g id="a_node3"><a xlink:href="src/Ranks.js" xlink:title="Ranks.js">
<path fill="#ffffcc" stroke="black" d="M288,-34C288,-34 246,-34 246,-34 243,-34 240,-31 240,-28 240,-28 240,-22 240,-22 240,-19 243,-16 246,-16 246,-16 288,-16 288,-16 291,-16 294,-19 294,-22 294,-22 294,-28 294,-28 294,-31 291,-34 288,-34"/>
<text text-anchor="middle" x="267" y="-22.8" font-family="Helvetica,sans-Serif" font-size="9.00">Ranks.js</text>
</a>
</g>
</g>
<!-- src/Deck.js&#45;&gt;src/Ranks.js -->
<g id="edge2" class="edge"><title>src/Deck.js&#45;&gt;src/Ranks.js</title>
<path fill="none" stroke="#999999" d="M130.431,-30.9194C136.556,-28.4983 143.438,-26.2184 150,-25 178.349,-19.7363 211.271,-20.3602 234.784,-21.9326"/>
<polygon fill="#999999" stroke="#999999" points="234.839,-23.691 239.951,-22.3035 235.089,-20.2 234.839,-23.691"/>
</g>
<!-- src/Suits.js -->
<g id="node4" class="node"><title>src/Suits.js</title>
<g id="a_node4"><a xlink:href="src/Suits.js" xlink:title="Suits.js">
<path fill="#ffffcc" stroke="black" d="M288,-64C288,-64 246,-64 246,-64 243,-64 240,-61 240,-58 240,-58 240,-52 240,-52 240,-49 243,-46 246,-46 246,-46 288,-46 288,-46 291,-46 294,-49 294,-52 294,-52 294,-58 294,-58 294,-61 291,-64 288,-64"/>
<text text-anchor="middle" x="267" y="-52.8" font-family="Helvetica,sans-Serif" font-size="9.00">Suits.js</text>
</a>
</g>
</g>
<!-- src/Deck.js&#45;&gt;src/Suits.js -->
<g id="edge3" class="edge"><title>src/Deck.js&#45;&gt;src/Suits.js</title>
<path fill="none" stroke="#999999" d="M130.431,-49.0806C136.556,-51.5017 143.438,-53.7816 150,-55 178.349,-60.2637 211.271,-59.6398 234.784,-58.0674"/>
<polygon fill="#999999" stroke="#999999" points="235.089,-59.8 239.951,-57.6965 234.839,-56.309 235.089,-59.8"/>
</g>
<!-- src/PlayingCard.js&#45;&gt;src/Ranks.js -->
<g id="edge4" class="edge"><title>src/PlayingCard.js&#45;&gt;src/Ranks.js</title>
<path fill="none" stroke="#999999" d="M227.302,-32.5879C229.805,-32.0971 232.311,-31.6057 234.776,-31.1223"/>
<polygon fill="#999999" stroke="#999999" points="235.197,-32.8232 239.767,-30.1438 234.523,-29.3886 235.197,-32.8232"/>
</g>
<!-- src/PlayingCard.js&#45;&gt;src/Suits.js -->
<g id="edge5" class="edge"><title>src/PlayingCard.js&#45;&gt;src/Suits.js</title>
<path fill="none" stroke="#999999" d="M227.302,-47.4121C229.805,-47.9029 232.311,-48.3943 234.776,-48.8777"/>
<polygon fill="#999999" stroke="#999999" points="234.523,-50.6114 239.767,-49.8562 235.197,-47.1768 234.523,-50.6114"/>
</g>
<!-- src/app.js -->
<g id="node5" class="node"><title>src/app.js</title>
<g id="a_node5"><a xlink:href="src/app.js" xlink:title="app.js">
<path fill="#ffffcc" stroke="black" d="M64,-49C64,-49 22,-49 22,-49 19,-49 16,-46 16,-43 16,-43 16,-37 16,-37 16,-34 19,-31 22,-31 22,-31 64,-31 64,-31 67,-31 70,-34 70,-37 70,-37 70,-43 70,-43 70,-46 67,-49 64,-49"/>
<text text-anchor="middle" x="43" y="-37.8" font-family="Helvetica,sans-Serif" font-size="9.00">app.js</text>
</a>
</g>
</g>
<!-- src/app.js&#45;&gt;src/Deck.js -->
<g id="edge6" class="edge"><title>src/app.js&#45;&gt;src/Deck.js</title>
<path fill="none" stroke="#999999" d="M70.0635,-40C72.58,-40 75.1501,-40 77.7102,-40"/>
<polygon fill="#999999" stroke="#999999" points="77.9307,-41.7501 82.9307,-40 77.9307,-38.2501 77.9307,-41.7501"/>
</g>
</g>
</svg>
